<mxfile host="app.diagrams.net" modified="2024-03-26T13:42:50.545Z" agent="Mozilla/5.0 (Macintosh; Intel Mac OS X 10_15_7) AppleWebKit/605.1.15 (KHTML, like Gecko) Version/17.2.1 Safari/605.1.15" version="24.1.0" etag="z0EQeDW1VlbCvLs-1b2B" type="github">
  <diagram name="Page-1" id="WA5ubFRTKD3QvkJJHdfj">
    <mxGraphModel>
      <root>
        <mxCell id="0" />
        <mxCell id="1" parent="0" />
      </root>
    </mxGraphModel>
  </diagram>
</mxfile>
